<?xml version="1.0" encoding="utf-8"?>
<!-- Generator: Adobe Illustrator 18.1.0, SVG Export Plug-In . SVG Version: 6.00 Build 0)  -->
<svg version="1.1" id="BRANDMARK_copy" xmlns="http://www.w3.org/2000/svg" xmlns:xlink="http://www.w3.org/1999/xlink" x="0px"
	 y="0px" viewBox="277.5 319.9 521.9 113.2" enable-background="new 277.5 319.9 521.9 113.2" xml:space="preserve">
<g>
	<rect x="277.5" y="319.9" fill="#FF5000" width="521.9" height="113.2"/>
	<g>
		<g>
			<g>
				<path fill="#FFFFFF" d="M474.7,360.6v24.9c0,2.9-0.2,5.8-2.7,5.8c-1.4,0-2.2-0.7-3.2-1.6l-0.5-0.5l-2.6,3.7l0.4,0.3
					c1.9,1.6,3.9,2.4,5.9,2.4c2.3,0,4.4-1,5.8-2.8c1.7-2.2,1.7-5,1.7-7.4v-24.9H474.7L474.7,360.6z"/>
				<path fill="#FFFFFF" d="M526.3,360c-9.2,0-16.6,7.5-16.6,16.6c0,9,7.4,16.4,16.6,16.4c3.4,0,6.7-1.1,9.5-3.1l0.3-0.2v-6
					l-1.1,1.1c-2.5,2.5-5.7,3.9-8.8,3.9c-6.4,0-11.8-5.6-11.8-12.1c0-6.6,5.4-12.1,11.8-12.1c3.3,0,6.5,1.4,8.9,3.9l1.1,1.1v-6
					l-0.3-0.2C533,361.1,529.9,360,526.3,360z"/>
				<path fill="#FFFFFF" d="M490,385.6h12.3c0.2,0.5,1.8,4.4,2.8,6.8h5.1L496.3,360L482,392.5h5.1
					C488.1,390.1,489.8,386.1,490,385.6z M496.2,371.1c0.8,2,3.7,8.8,4.2,10.1h-8.5C492.5,379.9,495.4,373.1,496.2,371.1z"/>
				<path fill="#FFFFFF" d="M560.7,392.5c0,0-11.3-12.7-15.2-17c4.3-4.3,14.8-14.9,14.8-14.9h6.4c0,0-14.3,14.1-15.1,14.9
					c0.7,0.8,15.4,17,15.4,17H560.7z M545.6,360.6h-4.6v31.9h4.6V360.6z"/>
			</g>
			<g>
				<path fill="#FFFFFF" d="M649.6,376.5c0,9.1-7.5,16.5-16.6,16.5c-9.2,0-16.6-7.4-16.6-16.5c0-9.1,7.5-16.5,16.6-16.5
					C642.1,360,649.6,367.5,649.6,376.5z M645,376.5c0-6.7-5.4-12.1-12-12.1c-6.6,0-12,5.4-12,12.1c0,6.7,5.4,12.1,12,12.1
					C639.6,388.6,645,383.2,645,376.5z"/>
				<path fill="#FFFFFF" d="M730.6,376.5c0,9.1-7.4,16.5-16.6,16.5c-9.2,0-16.6-7.4-16.6-16.5c0-9.1,7.5-16.5,16.6-16.5
					C723.2,360,730.6,367.5,730.6,376.5z M726,376.5c0-6.7-5.4-12.1-12-12.1c-6.6,0-11.9,5.4-11.9,12.1c0,6.7,5.4,12.1,11.9,12.1
					C720.6,388.6,726,383.2,726,376.5z"/>
				<path fill="#FFFFFF" d="M677.3,360.6v4.4c0,0,6.4,0,7.4,0c0,1.1,0,27.5,0,27.5h4.6c0,0,0-26.4,0-27.5c1.1,0,7.5,0,7.5,0v-4.4
					H677.3z"/>
				<path fill="#FFFFFF" d="M755.7,360.6c0,0,0,15.4,0,21.1c-4.5-4.8-16.3-17.1-20.6-21.6v32.4h4.6c0,0,0-15.4,0-21
					c4.5,4.7,16.3,17,20.7,21.6v-32.4L755.7,360.6L755.7,360.6z"/>
				<path fill="#FFFFFF" d="M607.8,360c0,0-8.6,17-11.5,22.8c-2.9-5.7-11.5-22.8-11.5-22.8l-6.7,32.4h4.7l3.7-18
					c3,5.7,8.7,16.5,9.8,18.5c1.1-2,6.8-12.8,9.8-18.5l3.7,18h4.7L607.8,360z"/>
				<path fill="#FFFFFF" d="M667.8,378.7c3.7-1.2,6.3-4.7,6.3-8.8c0-5.1-4.2-9.3-9.3-9.3h-9.8v31.9h4.6v-17.7V365h4.9
					c2.7,0,4.9,2.2,4.9,4.9c0,2.7-2.2,4.9-4.9,4.9h-4.9c0.6,0.9,12.2,17.7,12.2,17.7h5.7C677.6,392.5,671,383.2,667.8,378.7z"/>
			</g>
		</g>
		<path fill="#FFFFFF" d="M384,383.2c0,2.7-2.2,5-5,5c-2.8,0-5-2.2-5-5c0-2.7,2.2-5,5-5C381.8,378.2,384,380.5,384,383.2z
			 M379.1,360.6c-8.8,0-15.9,7.1-15.9,16c0,8.8,7.1,15.9,15.9,15.9c8.8,0,15.9-7.1,15.9-15.9C395,367.7,387.9,360.6,379.1,360.6z
			 M398.2,376.5c0,10.5-8.6,19.1-19.1,19.1c-10.6,0-19.1-8.5-19.1-19.1c0-10.6,8.6-19.1,19.1-19.1
			C389.6,357.4,398.2,366,398.2,376.5z M439.5,376.5c0,8.8-7.1,15.9-15.9,15.9c-8.8,0-15.9-7.1-15.9-15.9c0-8.8,7.1-16,15.9-16
			C432.4,360.6,439.5,367.7,439.5,376.5z M423.6,357.4c-10.5,0-19.1,8.5-19.1,19.1c0,10.5,8.6,19.1,19.1,19.1
			c10.6,0,19.1-8.5,19.1-19.1C442.7,366,434.2,357.4,423.6,357.4z M423.6,385c-2.9,0-5.4-1.7-6.5-4.2h-3.4c1.3,4.3,5.2,7.4,9.9,7.4
			c4.7,0,8.6-3.1,9.9-7.4h-3.4C429,383.3,426.5,385,423.6,385z M350.5,376.5c0,8.8-7.1,15.9-15.9,15.9c-8.8,0-15.9-7.1-15.9-15.9
			c0-8.8,7.1-16,15.9-16C343.3,360.6,350.5,367.7,350.5,376.5z M334.5,357.4c-10.5,0-19.1,8.5-19.1,19.1c0,10.5,8.6,19.1,19.1,19.1
			c10.6,0,19.1-8.5,19.1-19.1C353.6,366,345.1,357.4,334.5,357.4z M341.9,381.6h-14.8v3.2h14.8V381.6z"/>
	</g>
</g>
</svg>
